<svg width="200" height="58" viewBox="0 0 200 58" fill="none" xmlns="http://www.w3.org/2000/svg">
<g id="Vector">
<path d="M26.063 40.0248V49.8799C33.2643 49.8799 39.1627 44.2514 39.593 37.149H28.9507C27.3539 37.149 26.063 38.4385 26.063 40.0248ZM26.063 9.29138V23.9264H3.62539C1.62228 23.9264 0 25.5487 0 27.5518V57.51L9.04399 54.5129C11.7353 53.6148 13.542 51.1079 13.542 48.2696V35.0605H35.9796C37.9827 35.0605 39.605 33.4382 39.605 31.4351V0.0629721L30.561 3.04965C27.8816 3.94625 26.063 6.45314 26.063 9.29138ZM13.542 9.68421C6.43965 9.68421 0.602733 15.1778 0.0494781 22.1452H10.6783C12.2631 22.1452 13.554 20.8543 13.554 19.2695V9.68421H13.542Z" fill="white"/>
<path d="M70.078 5.75119H75.2093V30.4297H70.078V20.0617H62.9001V30.4297H57.7839V5.75119H62.9001V15.6226H70.078V5.75119Z" fill="white"/>
<path d="M87.4713 5.69097H94.5288L100.698 30.4297H95.221L94.0171 25.1178H87.9829L86.8092 30.4297H81.3017L87.4713 5.69097ZM90.9925 11.6048L88.961 20.6937H93.0089L90.9925 11.6048Z" fill="white"/>
<path d="M124.86 5.75119V30.4297H119.458L111.482 15.126L111.633 20.0918V30.4297H106.802V5.75119H112.204L120.15 21.0699L119.984 16.1041V5.75119H124.86Z" fill="white"/>
<path d="M150.349 5.75119V30.4297H144.947L136.972 15.126L137.122 20.0918V30.4297H132.292V5.75119H137.694L145.639 21.0699L145.474 16.1041V5.75119H150.349Z" fill="white"/>
<path d="M162.612 5.69097H169.669L175.839 30.4297H170.361L169.157 25.1178H163.123L161.95 30.4297H156.442L162.612 5.69097ZM166.133 11.6048L164.101 20.6937H168.149L166.133 11.6048Z" fill="white"/>
<path d="M200 5.75119V30.4297H194.598L186.622 15.126L186.773 20.0918V30.4297H181.943V5.75119H187.345L195.29 21.0699L195.124 16.1041V5.75119H200Z" fill="white"/>
<path d="M63.7248 41.5005V51.6729H61.1516V41.5005H58.2925V39.2734H66.599V41.5005H63.7248Z" fill="white"/>
<path d="M83.0378 47.2187V51.6729H80.4647V39.2734H84.5276C85.0392 39.2734 85.5433 39.3261 86.0474 39.4239C86.5478 39.5142 87.0105 39.691 87.4318 39.9506C87.8607 40.2139 88.203 40.5939 88.4551 41.0942C88.7147 41.5983 88.8463 42.2642 88.8463 43.0956V43.4116C88.8463 44.4048 88.6582 45.1722 88.2896 45.7139C87.9171 46.2481 87.4506 46.6281 86.8901 46.8576L88.8463 51.6729H86.0625L84.3621 47.2187H83.0378ZM83.0378 44.9916H84.648C84.8774 44.9916 85.1145 44.954 85.3552 44.8712C85.6035 44.7922 85.8104 44.6305 85.9722 44.3897C86.1415 44.1489 86.228 43.7991 86.228 43.3364V43.1708C86.228 42.7119 86.1415 42.3582 85.9722 42.1175C85.8104 41.8767 85.6035 41.7187 85.3552 41.6359C85.1145 41.5457 84.8774 41.5005 84.648 41.5005H83.0378V44.9916Z" fill="white"/>
<path d="M105.506 39.2434H109.042L112.142 51.6729H109.388L108.786 49.0094H105.761L105.175 51.6729H102.406L105.506 39.2434ZM107.266 42.2228L106.243 46.7824H108.29L107.266 42.2228Z" fill="white"/>
<path d="M134.986 45.7892C134.986 47.2262 134.805 48.3736 134.444 49.2351C134.083 50.0891 133.515 50.7098 132.744 51.1011C131.98 51.4848 130.987 51.6729 129.764 51.6729H125.957V39.2734H129.764C130.987 39.2734 131.98 39.4653 132.744 39.8452C133.515 40.229 134.083 40.8497 134.444 41.7112C134.805 42.5764 134.986 43.7238 134.986 45.1572V45.7892ZM128.53 49.4458H129.614C130.336 49.4458 130.893 49.3179 131.284 49.0546C131.683 48.7837 131.965 48.3849 132.127 47.8507C132.285 47.309 132.367 46.6243 132.367 45.7892V45.1572C132.367 44.337 132.285 43.6524 132.127 43.1106C131.965 42.5689 131.683 42.1701 131.284 41.9068C130.893 41.6359 130.336 41.5005 129.614 41.5005H128.53V49.4458Z" fill="white"/>
<path d="M151.844 39.2734V51.6729H149.271V39.2734H151.844Z" fill="white"/>
<path d="M175.474 39.2734V51.6729H172.765L168.747 43.9834L168.837 46.4814V51.6729H166.4V39.2734H169.123L173.111 46.9629L173.021 44.48V39.2734H175.474Z" fill="white"/>
<path d="M194.591 51.8835C192.913 51.8835 191.675 51.4095 190.874 50.454C190.08 49.4909 189.685 47.9372 189.685 45.7891V45.1571C189.685 43.0128 190.076 41.4629 190.859 40.5073C191.641 39.5555 192.834 39.0778 194.44 39.0778C195.922 39.0778 197.047 39.4164 197.811 40.086C198.571 40.7594 198.954 41.8692 198.954 43.4116V43.9834H196.381C196.381 43.1332 196.261 42.4711 196.02 41.9971C195.779 41.5268 195.298 41.2898 194.576 41.2898H194.44C193.876 41.2898 193.439 41.4403 193.131 41.7413C192.819 42.0422 192.604 42.4861 192.484 43.0655C192.363 43.6373 192.303 44.337 192.303 45.1571V45.7891C192.303 46.6243 192.363 47.324 192.484 47.8958C192.612 48.4677 192.834 48.904 193.146 49.205C193.466 49.506 193.928 49.6564 194.53 49.6564H194.681C195.049 49.6564 195.377 49.6113 195.659 49.521C195.937 49.4307 196.174 49.3179 196.366 49.1749V47.1886H194.726V44.9615H198.939V50.4389C198.477 50.8226 197.905 51.1575 197.224 51.4471C196.551 51.7368 195.674 51.8835 194.591 51.8835Z" fill="white"/>
</g>
</svg>
