<svg width="150" height="44" viewBox="0 0 150 44" fill="none" xmlns="http://www.w3.org/2000/svg">
<g id="Vector">
<path d="M19.5472 30.0186V37.4099C24.9482 37.4099 29.372 33.1886 29.6947 27.8618H21.713C20.5154 27.8618 19.5472 28.8289 19.5472 30.0186ZM19.5472 6.96854V17.9448H2.71905C1.21671 17.9448 0 19.1615 0 20.6638V43.1325L6.783 40.8846C8.80148 40.2111 10.1565 38.3309 10.1565 36.2022V26.2954H26.9847C28.487 26.2954 29.7037 25.0786 29.7037 23.5763V0.0472291L22.9207 2.28724C20.9112 2.95969 19.5472 4.83986 19.5472 6.96854ZM10.1565 7.26316C4.82974 7.26316 0.45205 11.3833 0.0371086 16.6089H8.0087C9.1973 16.6089 10.1655 15.6407 10.1655 14.4521V7.26316H10.1565Z" fill="#7F56D9"/>
<path d="M52.5585 4.31339H56.407V22.8223H52.5585V15.0463H47.1751V22.8223H43.3379V4.31339H47.1751V11.717H52.5585V4.31339Z" fill="#7F56D9"/>
<path d="M65.6035 4.26823H70.8966L75.5238 22.8223H71.4157L70.5129 18.8383H65.9872L65.1069 22.8223H60.9763L65.6035 4.26823ZM68.2444 8.70359L66.7208 15.5203H69.7567L68.2444 8.70359Z" fill="#7F56D9"/>
<path d="M93.6448 4.31339V22.8223H89.5932L83.6116 11.3445L83.7245 15.0689V22.8223H80.1017V4.31339H84.1534L90.1123 15.8025L89.9882 12.0781V4.31339H93.6448Z" fill="#7F56D9"/>
<path d="M112.762 4.31339V22.8223H108.71L102.729 11.3445L102.842 15.0689V22.8223H99.2188V4.31339H103.27L109.229 15.8025L109.105 12.0781V4.31339H112.762Z" fill="#7F56D9"/>
<path d="M121.959 4.26823H127.252L131.879 22.8223H127.771L126.868 18.8383H122.342L121.462 22.8223H117.332L121.959 4.26823ZM124.6 8.70359L123.076 15.5203H126.112L124.6 8.70359Z" fill="#7F56D9"/>
<path d="M150 4.31339V22.8223H145.948L139.967 11.3445L140.08 15.0689V22.8223H136.457V4.31339H140.509L146.468 15.8025L146.343 12.0781V4.31339H150Z" fill="#7F56D9"/>
<path d="M47.7936 31.1254V38.7547H45.8637V31.1254H43.7194V29.4551H49.9492V31.1254H47.7936Z" fill="#7F56D9"/>
<path d="M62.2784 35.414V38.7547H60.3485V29.4551H63.3957C63.7794 29.4551 64.1575 29.4946 64.5356 29.5679C64.9108 29.6356 65.2579 29.7683 65.5739 29.9629C65.8955 30.1604 66.1523 30.4454 66.3413 30.8207C66.536 31.1987 66.6348 31.6982 66.6348 32.3217V32.5587C66.6348 33.3036 66.4937 33.8792 66.2172 34.2854C65.9379 34.6861 65.588 34.9711 65.1676 35.1432L66.6348 38.7547H64.5469L63.2716 35.414H62.2784ZM62.2784 33.7437H63.486C63.6581 33.7437 63.8358 33.7155 64.0164 33.6534C64.2026 33.5942 64.3578 33.4729 64.4791 33.2923C64.6061 33.1117 64.671 32.8493 64.671 32.5023V32.3781C64.671 32.0339 64.6061 31.7687 64.4791 31.5881C64.3578 31.4075 64.2026 31.289 64.0164 31.227C63.8358 31.1592 63.6581 31.1254 63.486 31.1254H62.2784V33.7437Z" fill="#7F56D9"/>
<path d="M79.1292 29.4325H81.7814L84.1063 38.7547H82.041L81.5896 36.7571H79.3211L78.881 38.7547H76.8044L79.1292 29.4325ZM80.4497 31.6671L79.6823 35.0868H81.2171L80.4497 31.6671Z" fill="#7F56D9"/>
<path d="M101.239 34.3419C101.239 35.4197 101.104 36.2802 100.833 36.9263C100.562 37.5668 100.136 38.0324 99.5577 38.3258C98.985 38.6136 98.2401 38.7547 97.3231 38.7547H94.4678V29.4551H97.3231C98.2401 29.4551 98.985 29.599 99.5577 29.8839C100.136 30.1717 100.562 30.6373 100.833 31.2834C101.104 31.9323 101.239 32.7929 101.239 33.8679V34.3419ZM96.3977 37.0844H97.2102C97.752 37.0844 98.1695 36.9884 98.463 36.7909C98.7621 36.5878 98.9737 36.2887 99.095 35.888C99.2135 35.4818 99.2756 34.9682 99.2756 34.3419V33.8679C99.2756 33.2528 99.2135 32.7393 99.095 32.333C98.9737 31.9267 98.7621 31.6276 98.463 31.4301C98.1695 31.227 97.752 31.1254 97.2102 31.1254H96.3977V37.0844Z" fill="#7F56D9"/>
<path d="M113.883 29.4551V38.7547H111.953V29.4551H113.883Z" fill="#7F56D9"/>
<path d="M131.605 29.4551V38.7547H129.574L126.56 32.9876L126.628 34.861V38.7547H124.8V29.4551H126.843L129.833 35.2222L129.766 33.36V29.4551H131.605Z" fill="#7F56D9"/>
<path d="M145.943 38.9126C144.685 38.9126 143.756 38.5571 143.155 37.8405C142.56 37.1182 142.264 35.9529 142.264 34.3419V33.8678C142.264 32.2596 142.557 31.0972 143.144 30.3805C143.731 29.6667 144.625 29.3083 145.83 29.3083C146.942 29.3083 147.785 29.5623 148.358 30.0645C148.928 30.5695 149.216 31.4019 149.216 32.5587V32.9875H147.286C147.286 32.3499 147.196 31.8533 147.015 31.4978C146.835 31.1451 146.473 30.9674 145.932 30.9674H145.83C145.407 30.9674 145.08 31.0802 144.848 31.3059C144.614 31.5317 144.453 31.8646 144.363 32.2991C144.273 32.728 144.227 33.2528 144.227 33.8678V34.3419C144.227 34.9682 144.273 35.493 144.363 35.9219C144.459 36.3507 144.625 36.678 144.859 36.9038C145.099 37.1295 145.446 37.2423 145.898 37.2423H146.011C146.287 37.2423 146.533 37.2085 146.744 37.1408C146.953 37.073 147.131 36.9884 147.275 36.8812V35.3914H146.044V33.7211H149.205V37.8292C148.858 38.117 148.429 38.3681 147.918 38.5854C147.413 38.8026 146.755 38.9126 145.943 38.9126Z" fill="#7F56D9"/>
</g>
</svg>
