<svg width="20" height="20" viewBox="0 0 20 20" fill="none" xmlns="http://www.w3.org/2000/svg">
<g id="announcement-02">
<path id="Icon" d="M3.33329 11.6666L4.6455 16.9154C4.6824 17.063 4.70085 17.1368 4.72268 17.2013C4.93593 17.8309 5.50289 18.2735 6.16539 18.3277C6.23321 18.3333 6.30929 18.3333 6.46145 18.3333C6.65199 18.3333 6.74726 18.3333 6.82752 18.3255C7.62079 18.2485 8.24857 17.6208 8.32551 16.8275C8.33329 16.7472 8.33329 16.652 8.33329 16.4614V4.58326M15.4166 11.2499C17.0275 11.2499 18.3333 9.94409 18.3333 8.33326C18.3333 6.72243 17.0275 5.41659 15.4166 5.41659M8.54162 4.58326H5.41663C3.34556 4.58326 1.66662 6.26219 1.66663 8.33326C1.66663 10.4043 3.34556 12.0833 5.41663 12.0833H8.54163C10.0137 12.0833 11.8143 12.8723 13.2035 13.6296C14.014 14.0714 14.4192 14.2923 14.6846 14.2598C14.9307 14.2297 15.1168 14.1192 15.2611 13.9175C15.4166 13.7 15.4166 13.2649 15.4166 12.3947V4.27183C15.4166 3.40159 15.4166 2.96647 15.2611 2.749C15.1168 2.54734 14.9307 2.43684 14.6846 2.4067C14.4192 2.37419 14.014 2.59509 13.2035 3.03689C11.8143 3.79419 10.0136 4.58326 8.54162 4.58326Z" stroke="white" stroke-width="1.66667" stroke-linecap="round" stroke-linejoin="round"/>
</g>
</svg>
