<svg width="20" height="20" viewBox="0 0 20 20" fill="none" xmlns="http://www.w3.org/2000/svg">
<g id="copy-07" clip-path="url(#clip0_293_13491)">
<path id="Icon" d="M8.74935 1.66896C8.18681 1.67658 7.8491 1.70915 7.57603 1.84828C7.26243 2.00807 7.00746 2.26304 6.84767 2.57664C6.70854 2.84971 6.67597 3.18742 6.66835 3.74996M16.2493 1.66896C16.8119 1.67658 17.1496 1.70915 17.4227 1.84828C17.7363 2.00807 17.9912 2.26304 18.151 2.57664C18.2902 2.84971 18.3227 3.18741 18.3304 3.74995M18.3304 11.25C18.3227 11.8125 18.2902 12.1502 18.151 12.4233C17.9912 12.7369 17.7363 12.9918 17.4227 13.1516C17.1496 13.2908 16.8119 13.3233 16.2493 13.331M18.3327 6.66662V8.33329M11.6661 1.66663H13.3326M4.33268 18.3333H10.666C11.5994 18.3333 12.0661 18.3333 12.4227 18.1516C12.7363 17.9918 12.9912 17.7369 13.151 17.4233C13.3327 17.0668 13.3327 16.6 13.3327 15.6666V9.33329C13.3327 8.39987 13.3327 7.93316 13.151 7.57664C12.9912 7.26304 12.7363 7.00807 12.4227 6.84828C12.0661 6.66663 11.5994 6.66663 10.666 6.66663H4.33268C3.39926 6.66663 2.93255 6.66663 2.57603 6.84828C2.26243 7.00807 2.00746 7.26304 1.84767 7.57664C1.66602 7.93316 1.66602 8.39987 1.66602 9.33329V15.6666C1.66602 16.6 1.66602 17.0668 1.84767 17.4233C2.00746 17.7369 2.26243 17.9918 2.57603 18.1516C2.93255 18.3333 3.39926 18.3333 4.33268 18.3333Z" stroke="#6941C6" stroke-width="1.66667" stroke-linecap="round" stroke-linejoin="round"/>
</g>
<defs>
<clipPath id="clip0_293_13491">
<rect width="20" height="20" fill="white"/>
</clipPath>
</defs>
</svg>
