<svg width="25" height="25" viewBox="0 0 25 25" fill="none" xmlns="http://www.w3.org/2000/svg">
<g id="Social icon" clip-path="url(#clip0_15_1066)">
<path id="Vector" d="M24.2663 12.4573C24.2663 11.6416 24.2001 10.8215 24.059 10.019H12.7402V14.64H19.222C18.953 16.1303 18.0888 17.4487 16.8233 18.2865V21.2848H20.6903C22.9611 19.1948 24.2663 16.1083 24.2663 12.4573Z" fill="#4285F4"/>
<path id="Vector_2" d="M12.7401 24.1817C15.9766 24.1817 18.7059 23.1191 20.6945 21.2848L16.8276 18.2865C15.7517 19.0184 14.3627 19.4329 12.7445 19.4329C9.61388 19.4329 6.95946 17.3208 6.00705 14.4812H2.0166V17.5721C4.05371 21.6243 8.2029 24.1817 12.7401 24.1817Z" fill="#34A853"/>
<path id="Vector_3" d="M6.00277 14.4812C5.50011 12.9908 5.50011 11.377 6.00277 9.88666V6.79572H2.01674C0.314734 10.1865 0.314734 14.1813 2.01674 17.5721L6.00277 14.4812Z" fill="#FBBC04"/>
<path id="Vector_4" d="M12.7401 4.93057C14.4509 4.90411 16.1044 5.54787 17.3434 6.72958L20.7695 3.30352C18.6001 1.26641 15.7208 0.146442 12.7401 0.181717C8.2029 0.181717 4.05371 2.73913 2.0166 6.79572L6.00264 9.88666C6.95064 7.04264 9.60947 4.93057 12.7401 4.93057Z" fill="#EA4335"/>
</g>
<defs>
<clipPath id="clip0_15_1066">
<rect width="24" height="24" fill="white" transform="translate(0.5 0.180908)"/>
</clipPath>
</defs>
</svg>
