<svg width="20" height="21" viewBox="0 0 20 21" fill="none" xmlns="http://www.w3.org/2000/svg">
<g id="home-line">
<path id="Icon" d="M6.66667 14.3477H13.3333M9.18141 2.48436L3.52949 6.8803C3.15168 7.17415 2.96278 7.32108 2.82669 7.50508C2.70614 7.66807 2.61633 7.85168 2.56169 8.04691C2.5 8.2673 2.5 8.50661 2.5 8.98524V15.0143C2.5 15.9478 2.5 16.4145 2.68166 16.771C2.84144 17.0846 3.09641 17.3396 3.41002 17.4994C3.76654 17.681 4.23325 17.681 5.16667 17.681H14.8333C15.7668 17.681 16.2335 17.681 16.59 17.4994C16.9036 17.3396 17.1586 17.0846 17.3183 16.771C17.5 16.4145 17.5 15.9478 17.5 15.0143V8.98524C17.5 8.50661 17.5 8.2673 17.4383 8.04691C17.3837 7.85168 17.2939 7.66807 17.1733 7.50508C17.0372 7.32108 16.8483 7.17415 16.4705 6.8803L10.8186 2.48436C10.5258 2.25665 10.3794 2.1428 10.2178 2.09903C10.0752 2.06041 9.92484 2.06041 9.78221 2.09903C9.62057 2.1428 9.47418 2.25665 9.18141 2.48436Z" stroke="#717680" stroke-width="1.67" stroke-linecap="round" stroke-linejoin="round"/>
</g>
</svg>
