<svg width="28" height="28" viewBox="0 0 28 28" fill="none" xmlns="http://www.w3.org/2000/svg">
<g id="image-user-right">
<path id="Icon" d="M22.1673 9.33337L25.6673 5.83337M25.6673 5.83337L22.1673 2.33337M25.6673 5.83337L18.6673 5.83337M25.6673 14V20.0667C25.6673 22.0269 25.6673 23.007 25.2858 23.7557C24.9503 24.4142 24.4149 24.9497 23.7563 25.2852C23.0076 25.6667 22.0275 25.6667 20.0673 25.6667H7.93398C5.9738 25.6667 4.99371 25.6667 4.24502 25.2852C3.58645 24.9497 3.05102 24.4142 2.71546 23.7557C2.33398 23.007 2.33398 22.0269 2.33398 20.0667V7.93337C2.33398 5.97319 2.33398 4.9931 2.71546 4.24441C3.05102 3.58584 3.58645 3.05041 4.24502 2.71485C4.99371 2.33337 5.9738 2.33337 7.93398 2.33337H14.0007M2.50374 23.2474C3.05108 21.2784 4.85698 19.8334 7.00038 19.8334H15.167C16.2512 19.8334 16.7933 19.8334 17.2441 19.923C19.0954 20.2913 20.5425 21.7384 20.9107 23.5896C21.0004 24.0404 21.0004 24.5825 21.0004 25.6667M16.334 11.0834C16.334 13.6607 14.2446 15.75 11.6673 15.75C9.08999 15.75 7.00065 13.6607 7.00065 11.0834C7.00065 8.50604 9.08999 6.41671 11.6673 6.41671C14.2446 6.41671 16.334 8.50604 16.334 11.0834Z" stroke="#414651" stroke-width="2" stroke-linecap="round" stroke-linejoin="round"/>
</g>
</svg>
