<svg width="16" height="16" viewBox="0 0 16 16" fill="none" xmlns="http://www.w3.org/2000/svg">
<g id="mail-01">
<path id="Icon" d="M1.33398 4.66666L6.77726 8.47695C7.21804 8.7855 7.43844 8.93977 7.67816 8.99953C7.88991 9.05231 8.11139 9.05231 8.32314 8.99953C8.56287 8.93977 8.78326 8.7855 9.22404 8.47695L14.6673 4.66666M4.53398 13.3333H11.4673C12.5874 13.3333 13.1475 13.3333 13.5753 13.1153C13.9516 12.9236 14.2576 12.6176 14.4493 12.2413C14.6673 11.8135 14.6673 11.2534 14.6673 10.1333V5.86666C14.6673 4.74655 14.6673 4.1865 14.4493 3.75868C14.2576 3.38235 13.9516 3.07639 13.5753 2.88464C13.1475 2.66666 12.5874 2.66666 11.4673 2.66666H4.53398C3.41388 2.66666 2.85383 2.66666 2.426 2.88464C2.04968 3.07639 1.74372 3.38235 1.55197 3.75868C1.33398 4.1865 1.33398 4.74655 1.33398 5.86666V10.1333C1.33398 11.2534 1.33398 11.8135 1.55197 12.2413C1.74372 12.6176 2.04968 12.9236 2.426 13.1153C2.85383 13.3333 3.41388 13.3333 4.53398 13.3333Z" stroke="#717680" stroke-width="1.33333" stroke-linecap="round" stroke-linejoin="round"/>
</g>
</svg>
