<svg width="24" height="25" viewBox="0 0 24 25" fill="none" xmlns="http://www.w3.org/2000/svg">
<g id="stars-02">
<path id="Icon" d="M4.5 22.1809V17.1809M4.5 7.18091V2.18091M2 4.68091H7M2 19.6809H7M13 3.18091L11.2658 7.68977C10.9838 8.423 10.8428 8.78962 10.6235 9.09799C10.4292 9.37131 10.1904 9.6101 9.91709 9.80444C9.60871 10.0237 9.24209 10.1647 8.50886 10.4467L4 12.1809L8.50886 13.9151C9.24209 14.1971 9.60871 14.3381 9.91709 14.5574C10.1904 14.7517 10.4292 14.9905 10.6235 15.2638C10.8428 15.5722 10.9838 15.9388 11.2658 16.672L13 21.1809L14.7342 16.672C15.0162 15.9388 15.1572 15.5722 15.3765 15.2638C15.5708 14.9905 15.8096 14.7517 16.0829 14.5574C16.3913 14.3381 16.7579 14.1971 17.4911 13.9151L22 12.1809L17.4911 10.4467C16.7579 10.1647 16.3913 10.0237 16.0829 9.80444C15.8096 9.6101 15.5708 9.37131 15.3765 9.09799C15.1572 8.78962 15.0162 8.423 14.7342 7.68977L13 3.18091Z" stroke="#414651" stroke-width="2" stroke-linecap="round" stroke-linejoin="round"/>
</g>
</svg>
