<svg width="24" height="25" viewBox="0 0 24 25" fill="none" xmlns="http://www.w3.org/2000/svg">
<g id="users-plus">
<path id="Icon" d="M19 21.1809V15.1809M16 18.1809H22M12 15.1809H8C6.13623 15.1809 5.20435 15.1809 4.46927 15.4854C3.48915 15.8914 2.71046 16.6701 2.30448 17.6502C2 18.3853 2 19.3171 2 21.1809M15.5 3.47167C16.9659 4.06505 18 5.50222 18 7.18091C18 8.8596 16.9659 10.2968 15.5 10.8901M13.5 7.18091C13.5 9.39005 11.7091 11.1809 9.5 11.1809C7.29086 11.1809 5.5 9.39005 5.5 7.18091C5.5 4.97177 7.29086 3.18091 9.5 3.18091C11.7091 3.18091 13.5 4.97177 13.5 7.18091Z" stroke="#414651" stroke-width="2" stroke-linecap="round" stroke-linejoin="round"/>
</g>
</svg>
