<svg width="24" height="25" viewBox="0 0 24 25" fill="none" xmlns="http://www.w3.org/2000/svg">
<g id="passcode">
<path id="Icon" d="M12 12.1809H12.005M17 12.1809H17.005M7 12.1809H7.005M5.2 7.18091H18.8C19.9201 7.18091 20.4802 7.18091 20.908 7.3989C21.2843 7.59064 21.5903 7.8966 21.782 8.27293C22 8.70075 22 9.2608 22 10.3809V13.9809C22 15.101 22 15.6611 21.782 16.0889C21.5903 16.4652 21.2843 16.7712 20.908 16.9629C20.4802 17.1809 19.9201 17.1809 18.8 17.1809H5.2C4.0799 17.1809 3.51984 17.1809 3.09202 16.9629C2.71569 16.7712 2.40973 16.4652 2.21799 16.0889C2 15.6611 2 15.101 2 13.9809V10.3809C2 9.2608 2 8.70075 2.21799 8.27293C2.40973 7.8966 2.71569 7.59064 3.09202 7.3989C3.51984 7.18091 4.0799 7.18091 5.2 7.18091ZM12.25 12.1809C12.25 12.319 12.1381 12.4309 12 12.4309C11.8619 12.4309 11.75 12.319 11.75 12.1809C11.75 12.0428 11.8619 11.9309 12 11.9309C12.1381 11.9309 12.25 12.0428 12.25 12.1809ZM17.25 12.1809C17.25 12.319 17.1381 12.4309 17 12.4309C16.8619 12.4309 16.75 12.319 16.75 12.1809C16.75 12.0428 16.8619 11.9309 17 11.9309C17.1381 11.9309 17.25 12.0428 17.25 12.1809ZM7.25 12.1809C7.25 12.319 7.13807 12.4309 7 12.4309C6.86193 12.4309 6.75 12.319 6.75 12.1809C6.75 12.0428 6.86193 11.9309 7 11.9309C7.13807 11.9309 7.25 12.0428 7.25 12.1809Z" stroke="#414651" stroke-width="2" stroke-linecap="round" stroke-linejoin="round"/>
</g>
</svg>
