<svg width="24" height="25" viewBox="0 0 24 25" fill="none" xmlns="http://www.w3.org/2000/svg">
<g id="user-01">
<path id="Icon" d="M20 21.1809C20 19.7853 20 19.0876 19.8278 18.5198C19.44 17.2414 18.4395 16.2409 17.1611 15.8531C16.5933 15.6809 15.8956 15.6809 14.5 15.6809H9.5C8.10444 15.6809 7.40665 15.6809 6.83886 15.8531C5.56045 16.2409 4.56004 17.2414 4.17224 18.5198C4 19.0876 4 19.7853 4 21.1809M16.5 7.68091C16.5 10.1662 14.4853 12.1809 12 12.1809C9.51472 12.1809 7.5 10.1662 7.5 7.68091C7.5 5.19563 9.51472 3.18091 12 3.18091C14.4853 3.18091 16.5 5.19563 16.5 7.68091Z" stroke="#414651" stroke-width="2" stroke-linecap="round" stroke-linejoin="round"/>
</g>
</svg>
