<svg width="20" height="21" viewBox="0 0 20 21" fill="none" xmlns="http://www.w3.org/2000/svg">
<g id="rows-01">
<g id="Icon">
<path d="M14.8333 8.51424C15.7668 8.51424 16.2335 8.51424 16.59 8.33259C16.9036 8.1728 17.1586 7.91783 17.3183 7.60423C17.5 7.24771 17.5 6.781 17.5 5.84758V5.34758C17.5 4.41415 17.5 3.94744 17.3183 3.59092C17.1586 3.27732 16.9036 3.02235 16.59 2.86256C16.2335 2.68091 15.7668 2.68091 14.8333 2.68091L5.16667 2.68091C4.23325 2.68091 3.76654 2.68091 3.41002 2.86256C3.09641 3.02235 2.84144 3.27732 2.68166 3.59092C2.5 3.94744 2.5 4.41415 2.5 5.34757L2.5 5.84757C2.5 6.781 2.5 7.24771 2.68166 7.60423C2.84144 7.91783 3.09641 8.1728 3.41002 8.33259C3.76654 8.51424 4.23325 8.51424 5.16667 8.51424L14.8333 8.51424Z" stroke="#717680" stroke-width="1.67" stroke-linecap="round" stroke-linejoin="round"/>
<path d="M14.8333 17.6809C15.7668 17.6809 16.2335 17.6809 16.59 17.4993C16.9036 17.3395 17.1586 17.0845 17.3183 16.7709C17.5 16.4144 17.5 15.9477 17.5 15.0142V14.5142C17.5 13.5808 17.5 13.1141 17.3183 12.7576C17.1586 12.444 16.9036 12.189 16.59 12.0292C16.2335 11.8476 15.7668 11.8476 14.8333 11.8476L5.16667 11.8476C4.23325 11.8476 3.76654 11.8476 3.41002 12.0292C3.09641 12.189 2.84144 12.444 2.68166 12.7576C2.5 13.1141 2.5 13.5808 2.5 14.5142L2.5 15.0142C2.5 15.9477 2.5 16.4144 2.68166 16.7709C2.84144 17.0845 3.09641 17.3395 3.41002 17.4993C3.76654 17.6809 4.23325 17.6809 5.16667 17.6809H14.8333Z" stroke="#717680" stroke-width="1.67" stroke-linecap="round" stroke-linejoin="round"/>
</g>
</g>
</svg>
