<svg width="20" height="21" viewBox="0 0 20 21" fill="none" xmlns="http://www.w3.org/2000/svg">
<g id="users-01">
<path id="Icon" d="M18.3337 17.6809V16.0142C18.3337 14.461 17.2713 13.156 15.8337 12.7859M12.917 2.92321C14.1386 3.4177 15.0003 4.61533 15.0003 6.01424C15.0003 7.41315 14.1386 8.61079 12.917 9.10528M14.167 17.6809C14.167 16.1278 14.167 15.3512 13.9133 14.7386C13.5749 13.9219 12.926 13.273 12.1093 12.9346C11.4967 12.6809 10.7201 12.6809 9.16699 12.6809H6.66699C5.11385 12.6809 4.33728 12.6809 3.72471 12.9346C2.90795 13.273 2.25904 13.9219 1.92073 14.7386C1.66699 15.3512 1.66699 16.1278 1.66699 17.6809M11.2503 6.01424C11.2503 7.85519 9.75794 9.34757 7.91699 9.34757C6.07604 9.34757 4.58366 7.85519 4.58366 6.01424C4.58366 4.17329 6.07604 2.68091 7.91699 2.68091C9.75794 2.68091 11.2503 4.17329 11.2503 6.01424Z" stroke="#717680" stroke-width="1.67" stroke-linecap="round" stroke-linejoin="round"/>
</g>
</svg>
