<svg width="28" height="28" viewBox="0 0 28 28" fill="none" xmlns="http://www.w3.org/2000/svg">
<g id="wallet-02">
<path id="Icon" d="M18.6667 9.33338V5.25081C18.6667 4.28044 18.6667 3.79526 18.4623 3.4971C18.2837 3.23659 18.0071 3.05962 17.6957 3.00664C17.3393 2.94599 16.8988 3.14931 16.0178 3.55595L5.66885 8.33237C4.88309 8.69503 4.49021 8.87636 4.20246 9.15758C3.94807 9.4062 3.75389 9.70969 3.63476 10.0448C3.5 10.424 3.5 10.8567 3.5 11.7221V17.5M19.25 16.9167H19.2617M3.5 13.0667L3.5 20.7667C3.5 22.0735 3.5 22.7269 3.75432 23.226C3.97802 23.6651 4.33498 24.022 4.77402 24.2457C5.27315 24.5 5.92654 24.5 7.23333 24.5H20.7667C22.0735 24.5 22.7268 24.5 23.226 24.2457C23.665 24.022 24.022 23.6651 24.2457 23.226C24.5 22.7269 24.5 22.0735 24.5 20.7667V13.0667C24.5 11.7599 24.5 11.1065 24.2457 10.6074C24.022 10.1684 23.665 9.8114 23.226 9.5877C22.7269 9.33338 22.0735 9.33338 20.7667 9.33338L7.23333 9.33338C5.92654 9.33338 5.27315 9.33338 4.77402 9.58769C4.33498 9.8114 3.97802 10.1684 3.75432 10.6074C3.5 11.1065 3.5 11.7599 3.5 13.0667ZM19.8333 16.9167C19.8333 17.2389 19.5722 17.5 19.25 17.5C18.9278 17.5 18.6667 17.2389 18.6667 16.9167C18.6667 16.5945 18.9278 16.3334 19.25 16.3334C19.5722 16.3334 19.8333 16.5945 19.8333 16.9167Z" stroke="#414651" stroke-width="2" stroke-linecap="round" stroke-linejoin="round"/>
</g>
</svg>
